<svg xmlns="http://www.w3.org/2000/svg" viewBox="0 0 584.87 170"><defs><radialGradient id="c" cx="8032.95" cy="-4293.56" r="837.12" gradientTransform="matrix(.25 0 0 -.25 -1995.05 -1057)" gradientUnits="userSpaceOnUse"><stop offset="0" stop-color="#fff" stop-opacity="0.1"/><stop offset="1" stop-color="#fff" stop-opacity="0"/></radialGradient><linearGradient id="b" x1="8320.06" x2="8397.98" y1="-4870.76" y2="-4792.84" gradientTransform="matrix(.25 0 0 -.25 -2007 -1062.25)" gradientUnits="userSpaceOnUse"><stop offset="0" stop-color="#1a237e" stop-opacity="0.4"/><stop offset="1" stop-color="#1a237e" stop-opacity="0"/></linearGradient><clipPath id="a"><path d="m137.31 78.47-45.76 45.76L137.31 170H85l-19.61-19.61-26.16-26.16L85 78.47ZM85 0 0 85l26.16 26.16L137.31 0Z" style="fill:none"/></clipPath></defs><path d="M207.29 37h57.35v11.24h-45.71v33.95h41.28v11.08h-41.28v43h-11.64ZM276.76 37h11.78v99.2h-11.78ZM308.57 130.94q-6.72-7.48-6.72-20.93V65.55h11.77v42.67q0 10.13 4.58 14.83t12.32 4.71a18.27 18.27 0 0 0 10.59-3.18 21.52 21.52 0 0 0 7.2-8.32 23.73 23.73 0 0 0 2.57-10.81v-39.9h11.78v70.66h-11.23V126h-.55a23.32 23.32 0 0 1-9.29 8.87 27.18 27.18 0 0 1-13.58 3.6q-12.7-.04-19.44-7.53ZM397.19 137a18.15 18.15 0 0 1-6.17-3.8 17.31 17.31 0 0 1-4.15-6.21 23.4 23.4 0 0 1-1.39-8.61V76.22h-12.33V65.55h12.33V45.6h11.77v19.95h17.18v10.67h-17.18v39.37c0 4 .74 6.89 2.22 8.78q2.63 3.12 7.62 3.12a14.3 14.3 0 0 0 7.76-2.36v11.5a18.56 18.56 0 0 1-4.23 1.39 30.4 30.4 0 0 1-5.47.41 22.07 22.07 0 0 1-7.96-1.43ZM445.87 137a18.11 18.11 0 0 1-6.16-3.8 17.33 17.33 0 0 1-4.16-6.21 23.6 23.6 0 0 1-1.38-8.61V76.22h-12.33V65.55h12.33V45.6h11.77v19.95h17.18v10.67h-17.18v39.37c0 4 .74 6.89 2.21 8.78q2.64 3.12 7.63 3.12a14.24 14.24 0 0 0 7.75-2.36v11.5a18.48 18.48 0 0 1-4.22 1.39 30.44 30.44 0 0 1-5.48.41 22.28 22.28 0 0 1-7.96-1.43ZM485.7 133.57a33.66 33.66 0 0 1-12.53-13.37 40.56 40.56 0 0 1-4.51-19.2 42.23 42.23 0 0 1 4.22-18.84 34.2 34.2 0 0 1 12-13.71 32 32 0 0 1 18-5.12 33.94 33.94 0 0 1 18 4.63 30.75 30.75 0 0 1 11.72 12.83 41.33 41.33 0 0 1 4.09 18.71 13.69 13.69 0 0 1-.42 3.6h-55.83a27.89 27.89 0 0 0 3.89 13.58 22.51 22.51 0 0 0 8.79 8.31 23.79 23.79 0 0 0 11.15 2.77q13.58 0 20.92-12.74l10 4.85a35.56 35.56 0 0 1-12.4 13.59q-7.83 5-18.91 5a34.59 34.59 0 0 1-18.18-4.89Zm38.51-40.18a23.11 23.11 0 0 0-2.5-8.87 19 19 0 0 0-7-7.48 21.88 21.88 0 0 0-12-3.05 19.9 19.9 0 0 0-14.06 5.34 25.64 25.64 0 0 0-7.55 14.06ZM544.31 65.55h11.23v11.36h.55a19.17 19.17 0 0 1 8-9.7 22.47 22.47 0 0 1 12.47-3.89 20.58 20.58 0 0 1 8.31 1.53v12.61a22 22 0 0 0-10-2.21 16.51 16.51 0 0 0-9.42 2.91 21.17 21.17 0 0 0-6.8 7.84 22.6 22.6 0 0 0-2.56 10.63v39.58h-11.77V65.55Z" style="fill:#757575"/><g style="clip-path:url(#a)"><image width="128" height="99" style="opacity:.20000000298023224" transform="matrix(.96 0 0 .96 30.91 70.88)"/><path d="M137.31 78.47H85l-45.76 45.77 26.15 26.15 71.92-71.92z" style="fill:#54c5f8"/></g><g style="clip-path:url(#a)"><path d="M26.16 111.16 0 85 85 0h52.31L26.16 111.16z" style="fill:#54c5f8"/></g><g style="clip-path:url(#a)"><path d="M65.39 150.39 85 170h52.31l-45.78-45.76-26.14 26.15z" style="fill:#01579b"/></g><g style="clip-path:url(#a)"><path d="m65.39 150.39 38.79-13.43-12.65-12.72-26.14 26.15z" style="fill:url(#b)"/></g><g style="clip-path:url(#a)"><path d="M46.89 105.74h36.98v36.98H46.89z" style="fill:#29b6f6" transform="rotate(-45 65.381 124.238)"/></g><path d="m137.31 78.47-45.76 45.76L137.31 170H85l-19.61-19.61-26.16-26.16L85 78.47ZM85 0 0 85l26.16 26.16L137.31 0Z" style="fill:url(#c)"/></svg>